<svg width="35" height="35" viewBox="0 0 35 35" fill="none" xmlns="http://www.w3.org/2000/svg">
<path d="M33.9746 24.7461C34.5215 25.0195 34.9316 25.6348 34.9316 26.3184C34.9316 26.3867 34.9316 26.5234 34.9316 26.6602L33.291 33.7695C33.0859 34.5215 32.4707 35 31.7188 35C14.1504 35 3.8147e-06 20.8496 3.8147e-06 3.28125C3.8147e-06 2.5293 0.478519 1.91406 1.23047 1.70898L8.33985 0.0683594C8.47657 0.0683594 8.61329 0 8.68164 0C9.36524 0 9.98047 0.410156 10.2539 1.02539L13.5352 8.68164C13.6035 8.88672 13.6719 9.0918 13.6719 9.29688C13.6719 9.84375 13.3984 10.3223 13.0566 10.5957L8.88672 14.0137C11.416 19.3457 15.6543 23.584 20.9863 26.1133L24.4043 21.9434C24.6777 21.6016 25.1563 21.3281 25.6348 21.3281C25.9082 21.3281 26.1133 21.3965 26.3184 21.4648L33.9746 24.7461Z" fill="white"/>
</svg>
