<svg width="24" height="24" viewBox="0 0 24 24" fill="none" xmlns="http://www.w3.org/2000/svg">
<path d="M11.625 0C18.0469 0 23.25 5.20312 23.25 11.625C23.25 18.0469 18.0469 23.25 11.625 23.25C5.2031 23.25 -2.38419e-05 18.0469 -2.38419e-05 11.625C-2.38419e-05 5.20312 5.2031 0 11.625 0ZM17.2969 7.96875C17.4844 7.21875 17.0156 6.89062 16.5 7.07812L5.29685 11.3906C4.54685 11.6719 4.54685 12.1406 5.15623 12.3281L8.0156 13.2188L14.6719 9C15 8.8125 15.2812 8.95312 15.0469 9.14062L9.65623 14.0156L9.46873 16.9688C9.74998 16.9688 9.8906 16.8281 10.0312 16.6875L11.4375 15.3281L14.3437 17.4844C14.9062 17.7656 15.2812 17.625 15.4219 16.9688L17.2969 7.96875Z" fill="white"/>
</svg>
