<svg width="34" height="34" viewBox="0 0 34 34" fill="none" xmlns="http://www.w3.org/2000/svg">
<path d="M16.9531 0C26.3183 0 33.9062 7.58789 33.9062 16.9531C33.9062 26.3184 26.3183 33.9062 16.9531 33.9062C7.58788 33.9062 -1.14441e-05 26.3184 -1.14441e-05 16.9531C-1.14441e-05 7.58789 7.58788 0 16.9531 0ZM16.9531 30.625C24.4726 30.625 30.625 24.541 30.625 16.9531C30.625 9.43359 24.4726 3.28125 16.9531 3.28125C9.36522 3.28125 3.28124 9.43359 3.28124 16.9531C3.28124 24.541 9.36522 30.625 16.9531 30.625ZM21.123 23.5156L15.3125 19.2773C15.1074 19.1406 15.0391 18.8672 15.0391 18.6621V7.38281C15.0391 6.97266 15.3808 6.5625 15.8594 6.5625H18.0469C18.457 6.5625 18.8672 6.97266 18.8672 7.38281V17.0898L23.3789 20.4395C23.7891 20.7129 23.8574 21.1914 23.584 21.6016L22.2851 23.3105C22.0117 23.7207 21.5332 23.7891 21.123 23.5156Z" fill="white"/>
</svg>
