<svg width="27" height="36" viewBox="0 0 27 36" fill="none" xmlns="http://www.w3.org/2000/svg">
<path d="M11.7578 34.3164C1.77734 19.9609 -2.86102e-06 18.457 -2.86102e-06 13.125C-2.86102e-06 5.87891 5.81054 0 13.125 0C20.3711 0 26.25 5.87891 26.25 13.125C26.25 18.457 24.4043 19.9609 14.4238 34.3164C13.8086 35.2734 12.373 35.2734 11.7578 34.3164ZM13.125 18.5938C16.1328 18.5938 18.5937 16.2012 18.5937 13.125C18.5937 10.1172 16.1328 7.65625 13.125 7.65625C10.0488 7.65625 7.65625 10.1172 7.65625 13.125C7.65625 16.2012 10.0488 18.5938 13.125 18.5938Z" fill="white"/>
</svg>
