<svg width="21" height="21" viewBox="0 0 21 21" fill="none" xmlns="http://www.w3.org/2000/svg">
<path d="M17.8125 3.09375C19.7813 5.0625 21 7.64062 21 10.4531C21 16.1719 16.2188 20.8594 10.4531 20.8594C8.71877 20.8594 7.03127 20.3906 5.4844 19.5938L2.47955e-05 21L1.45315 15.6094C0.562525 14.0625 0.0468998 12.2812 0.0468998 10.4062C0.0468998 4.6875 4.7344 0 10.4531 0C13.2656 0 15.8906 1.125 17.8125 3.09375ZM10.4531 19.0781C15.2344 19.0781 19.2188 15.1875 19.2188 10.4531C19.2188 8.10938 18.2344 5.95312 16.5938 4.3125C14.9531 2.67188 12.7969 1.78125 10.5 1.78125C5.71877 1.78125 1.82815 5.67188 1.82815 10.4062C1.82815 12.0469 2.2969 13.6406 3.14065 15.0469L3.37502 15.375L2.4844 18.5625L5.76565 17.6719L6.0469 17.8594C7.40627 18.6562 8.90627 19.0781 10.4531 19.0781ZM15.2344 12.6094C15.4688 12.75 15.6563 12.7969 15.7031 12.9375C15.7969 13.0312 15.7969 13.5469 15.5625 14.1562C15.3281 14.7656 14.2969 15.3281 13.8281 15.375C12.9844 15.5156 12.3281 15.4688 10.6875 14.7188C8.06252 13.5938 6.37502 10.9688 6.2344 10.8281C6.09377 10.6406 5.20315 9.42188 5.20315 8.10938C5.20315 6.84375 5.8594 6.23438 6.09377 5.95312C6.32815 5.67188 6.6094 5.625 6.7969 5.625C6.93752 5.625 7.12502 5.625 7.26565 5.625C7.45315 5.625 7.64065 5.57812 7.87502 6.09375C8.06252 6.60938 8.62502 7.875 8.6719 8.01562C8.71877 8.15625 8.76565 8.29688 8.6719 8.48438C8.20315 9.46875 7.64065 9.42188 7.9219 9.89062C8.95315 11.625 9.93752 12.2344 11.4844 12.9844C11.7188 13.125 11.8594 13.0781 12.0469 12.9375C12.1875 12.75 12.7031 12.1406 12.8438 11.9062C13.0313 11.625 13.2188 11.6719 13.4531 11.7656C13.6875 11.8594 14.9531 12.4688 15.2344 12.6094Z" fill="white"/>
</svg>
